G75*
%MOIN*%
%OFA0B0*%
%FSLAX25Y25*%
%IPPOS*%
%LPD*%
%AMOC8*
5,1,8,0,0,1.08239X$1,22.5*
%
%ADD10C,0.00000*%
%ADD11R,0.92500X0.05000*%
%ADD12R,0.35000X0.05000*%
D10*
X0001984Y0015833D02*
X0241984Y0015833D01*
X0241984Y0395833D01*
X0001984Y0395833D01*
X0001984Y0015833D01*
X0005882Y0025833D02*
X0005884Y0025989D01*
X0005890Y0026145D01*
X0005900Y0026300D01*
X0005914Y0026455D01*
X0005932Y0026610D01*
X0005954Y0026764D01*
X0005979Y0026918D01*
X0006009Y0027071D01*
X0006043Y0027223D01*
X0006080Y0027375D01*
X0006121Y0027525D01*
X0006166Y0027674D01*
X0006215Y0027822D01*
X0006268Y0027969D01*
X0006324Y0028114D01*
X0006384Y0028258D01*
X0006448Y0028400D01*
X0006516Y0028541D01*
X0006587Y0028679D01*
X0006661Y0028816D01*
X0006739Y0028951D01*
X0006820Y0029084D01*
X0006905Y0029215D01*
X0006993Y0029344D01*
X0007084Y0029470D01*
X0007179Y0029594D01*
X0007276Y0029715D01*
X0007377Y0029834D01*
X0007481Y0029951D01*
X0007587Y0030064D01*
X0007697Y0030175D01*
X0007809Y0030283D01*
X0007924Y0030388D01*
X0008042Y0030491D01*
X0008162Y0030590D01*
X0008285Y0030686D01*
X0008410Y0030779D01*
X0008537Y0030868D01*
X0008667Y0030955D01*
X0008799Y0031038D01*
X0008933Y0031117D01*
X0009069Y0031194D01*
X0009207Y0031266D01*
X0009346Y0031336D01*
X0009488Y0031401D01*
X0009631Y0031463D01*
X0009775Y0031521D01*
X0009921Y0031576D01*
X0010069Y0031627D01*
X0010217Y0031674D01*
X0010367Y0031717D01*
X0010518Y0031756D01*
X0010670Y0031792D01*
X0010822Y0031823D01*
X0010976Y0031851D01*
X0011130Y0031875D01*
X0011284Y0031895D01*
X0011439Y0031911D01*
X0011595Y0031923D01*
X0011750Y0031931D01*
X0011906Y0031935D01*
X0012062Y0031935D01*
X0012218Y0031931D01*
X0012373Y0031923D01*
X0012529Y0031911D01*
X0012684Y0031895D01*
X0012838Y0031875D01*
X0012992Y0031851D01*
X0013146Y0031823D01*
X0013298Y0031792D01*
X0013450Y0031756D01*
X0013601Y0031717D01*
X0013751Y0031674D01*
X0013899Y0031627D01*
X0014047Y0031576D01*
X0014193Y0031521D01*
X0014337Y0031463D01*
X0014480Y0031401D01*
X0014622Y0031336D01*
X0014761Y0031266D01*
X0014899Y0031194D01*
X0015035Y0031117D01*
X0015169Y0031038D01*
X0015301Y0030955D01*
X0015431Y0030868D01*
X0015558Y0030779D01*
X0015683Y0030686D01*
X0015806Y0030590D01*
X0015926Y0030491D01*
X0016044Y0030388D01*
X0016159Y0030283D01*
X0016271Y0030175D01*
X0016381Y0030064D01*
X0016487Y0029951D01*
X0016591Y0029834D01*
X0016692Y0029715D01*
X0016789Y0029594D01*
X0016884Y0029470D01*
X0016975Y0029344D01*
X0017063Y0029215D01*
X0017148Y0029084D01*
X0017229Y0028951D01*
X0017307Y0028816D01*
X0017381Y0028679D01*
X0017452Y0028541D01*
X0017520Y0028400D01*
X0017584Y0028258D01*
X0017644Y0028114D01*
X0017700Y0027969D01*
X0017753Y0027822D01*
X0017802Y0027674D01*
X0017847Y0027525D01*
X0017888Y0027375D01*
X0017925Y0027223D01*
X0017959Y0027071D01*
X0017989Y0026918D01*
X0018014Y0026764D01*
X0018036Y0026610D01*
X0018054Y0026455D01*
X0018068Y0026300D01*
X0018078Y0026145D01*
X0018084Y0025989D01*
X0018086Y0025833D01*
X0018084Y0025677D01*
X0018078Y0025521D01*
X0018068Y0025366D01*
X0018054Y0025211D01*
X0018036Y0025056D01*
X0018014Y0024902D01*
X0017989Y0024748D01*
X0017959Y0024595D01*
X0017925Y0024443D01*
X0017888Y0024291D01*
X0017847Y0024141D01*
X0017802Y0023992D01*
X0017753Y0023844D01*
X0017700Y0023697D01*
X0017644Y0023552D01*
X0017584Y0023408D01*
X0017520Y0023266D01*
X0017452Y0023125D01*
X0017381Y0022987D01*
X0017307Y0022850D01*
X0017229Y0022715D01*
X0017148Y0022582D01*
X0017063Y0022451D01*
X0016975Y0022322D01*
X0016884Y0022196D01*
X0016789Y0022072D01*
X0016692Y0021951D01*
X0016591Y0021832D01*
X0016487Y0021715D01*
X0016381Y0021602D01*
X0016271Y0021491D01*
X0016159Y0021383D01*
X0016044Y0021278D01*
X0015926Y0021175D01*
X0015806Y0021076D01*
X0015683Y0020980D01*
X0015558Y0020887D01*
X0015431Y0020798D01*
X0015301Y0020711D01*
X0015169Y0020628D01*
X0015035Y0020549D01*
X0014899Y0020472D01*
X0014761Y0020400D01*
X0014622Y0020330D01*
X0014480Y0020265D01*
X0014337Y0020203D01*
X0014193Y0020145D01*
X0014047Y0020090D01*
X0013899Y0020039D01*
X0013751Y0019992D01*
X0013601Y0019949D01*
X0013450Y0019910D01*
X0013298Y0019874D01*
X0013146Y0019843D01*
X0012992Y0019815D01*
X0012838Y0019791D01*
X0012684Y0019771D01*
X0012529Y0019755D01*
X0012373Y0019743D01*
X0012218Y0019735D01*
X0012062Y0019731D01*
X0011906Y0019731D01*
X0011750Y0019735D01*
X0011595Y0019743D01*
X0011439Y0019755D01*
X0011284Y0019771D01*
X0011130Y0019791D01*
X0010976Y0019815D01*
X0010822Y0019843D01*
X0010670Y0019874D01*
X0010518Y0019910D01*
X0010367Y0019949D01*
X0010217Y0019992D01*
X0010069Y0020039D01*
X0009921Y0020090D01*
X0009775Y0020145D01*
X0009631Y0020203D01*
X0009488Y0020265D01*
X0009346Y0020330D01*
X0009207Y0020400D01*
X0009069Y0020472D01*
X0008933Y0020549D01*
X0008799Y0020628D01*
X0008667Y0020711D01*
X0008537Y0020798D01*
X0008410Y0020887D01*
X0008285Y0020980D01*
X0008162Y0021076D01*
X0008042Y0021175D01*
X0007924Y0021278D01*
X0007809Y0021383D01*
X0007697Y0021491D01*
X0007587Y0021602D01*
X0007481Y0021715D01*
X0007377Y0021832D01*
X0007276Y0021951D01*
X0007179Y0022072D01*
X0007084Y0022196D01*
X0006993Y0022322D01*
X0006905Y0022451D01*
X0006820Y0022582D01*
X0006739Y0022715D01*
X0006661Y0022850D01*
X0006587Y0022987D01*
X0006516Y0023125D01*
X0006448Y0023266D01*
X0006384Y0023408D01*
X0006324Y0023552D01*
X0006268Y0023697D01*
X0006215Y0023844D01*
X0006166Y0023992D01*
X0006121Y0024141D01*
X0006080Y0024291D01*
X0006043Y0024443D01*
X0006009Y0024595D01*
X0005979Y0024748D01*
X0005954Y0024902D01*
X0005932Y0025056D01*
X0005914Y0025211D01*
X0005900Y0025366D01*
X0005890Y0025521D01*
X0005884Y0025677D01*
X0005882Y0025833D01*
X0005882Y0190833D02*
X0005884Y0190989D01*
X0005890Y0191145D01*
X0005900Y0191300D01*
X0005914Y0191455D01*
X0005932Y0191610D01*
X0005954Y0191764D01*
X0005979Y0191918D01*
X0006009Y0192071D01*
X0006043Y0192223D01*
X0006080Y0192375D01*
X0006121Y0192525D01*
X0006166Y0192674D01*
X0006215Y0192822D01*
X0006268Y0192969D01*
X0006324Y0193114D01*
X0006384Y0193258D01*
X0006448Y0193400D01*
X0006516Y0193541D01*
X0006587Y0193679D01*
X0006661Y0193816D01*
X0006739Y0193951D01*
X0006820Y0194084D01*
X0006905Y0194215D01*
X0006993Y0194344D01*
X0007084Y0194470D01*
X0007179Y0194594D01*
X0007276Y0194715D01*
X0007377Y0194834D01*
X0007481Y0194951D01*
X0007587Y0195064D01*
X0007697Y0195175D01*
X0007809Y0195283D01*
X0007924Y0195388D01*
X0008042Y0195491D01*
X0008162Y0195590D01*
X0008285Y0195686D01*
X0008410Y0195779D01*
X0008537Y0195868D01*
X0008667Y0195955D01*
X0008799Y0196038D01*
X0008933Y0196117D01*
X0009069Y0196194D01*
X0009207Y0196266D01*
X0009346Y0196336D01*
X0009488Y0196401D01*
X0009631Y0196463D01*
X0009775Y0196521D01*
X0009921Y0196576D01*
X0010069Y0196627D01*
X0010217Y0196674D01*
X0010367Y0196717D01*
X0010518Y0196756D01*
X0010670Y0196792D01*
X0010822Y0196823D01*
X0010976Y0196851D01*
X0011130Y0196875D01*
X0011284Y0196895D01*
X0011439Y0196911D01*
X0011595Y0196923D01*
X0011750Y0196931D01*
X0011906Y0196935D01*
X0012062Y0196935D01*
X0012218Y0196931D01*
X0012373Y0196923D01*
X0012529Y0196911D01*
X0012684Y0196895D01*
X0012838Y0196875D01*
X0012992Y0196851D01*
X0013146Y0196823D01*
X0013298Y0196792D01*
X0013450Y0196756D01*
X0013601Y0196717D01*
X0013751Y0196674D01*
X0013899Y0196627D01*
X0014047Y0196576D01*
X0014193Y0196521D01*
X0014337Y0196463D01*
X0014480Y0196401D01*
X0014622Y0196336D01*
X0014761Y0196266D01*
X0014899Y0196194D01*
X0015035Y0196117D01*
X0015169Y0196038D01*
X0015301Y0195955D01*
X0015431Y0195868D01*
X0015558Y0195779D01*
X0015683Y0195686D01*
X0015806Y0195590D01*
X0015926Y0195491D01*
X0016044Y0195388D01*
X0016159Y0195283D01*
X0016271Y0195175D01*
X0016381Y0195064D01*
X0016487Y0194951D01*
X0016591Y0194834D01*
X0016692Y0194715D01*
X0016789Y0194594D01*
X0016884Y0194470D01*
X0016975Y0194344D01*
X0017063Y0194215D01*
X0017148Y0194084D01*
X0017229Y0193951D01*
X0017307Y0193816D01*
X0017381Y0193679D01*
X0017452Y0193541D01*
X0017520Y0193400D01*
X0017584Y0193258D01*
X0017644Y0193114D01*
X0017700Y0192969D01*
X0017753Y0192822D01*
X0017802Y0192674D01*
X0017847Y0192525D01*
X0017888Y0192375D01*
X0017925Y0192223D01*
X0017959Y0192071D01*
X0017989Y0191918D01*
X0018014Y0191764D01*
X0018036Y0191610D01*
X0018054Y0191455D01*
X0018068Y0191300D01*
X0018078Y0191145D01*
X0018084Y0190989D01*
X0018086Y0190833D01*
X0018084Y0190677D01*
X0018078Y0190521D01*
X0018068Y0190366D01*
X0018054Y0190211D01*
X0018036Y0190056D01*
X0018014Y0189902D01*
X0017989Y0189748D01*
X0017959Y0189595D01*
X0017925Y0189443D01*
X0017888Y0189291D01*
X0017847Y0189141D01*
X0017802Y0188992D01*
X0017753Y0188844D01*
X0017700Y0188697D01*
X0017644Y0188552D01*
X0017584Y0188408D01*
X0017520Y0188266D01*
X0017452Y0188125D01*
X0017381Y0187987D01*
X0017307Y0187850D01*
X0017229Y0187715D01*
X0017148Y0187582D01*
X0017063Y0187451D01*
X0016975Y0187322D01*
X0016884Y0187196D01*
X0016789Y0187072D01*
X0016692Y0186951D01*
X0016591Y0186832D01*
X0016487Y0186715D01*
X0016381Y0186602D01*
X0016271Y0186491D01*
X0016159Y0186383D01*
X0016044Y0186278D01*
X0015926Y0186175D01*
X0015806Y0186076D01*
X0015683Y0185980D01*
X0015558Y0185887D01*
X0015431Y0185798D01*
X0015301Y0185711D01*
X0015169Y0185628D01*
X0015035Y0185549D01*
X0014899Y0185472D01*
X0014761Y0185400D01*
X0014622Y0185330D01*
X0014480Y0185265D01*
X0014337Y0185203D01*
X0014193Y0185145D01*
X0014047Y0185090D01*
X0013899Y0185039D01*
X0013751Y0184992D01*
X0013601Y0184949D01*
X0013450Y0184910D01*
X0013298Y0184874D01*
X0013146Y0184843D01*
X0012992Y0184815D01*
X0012838Y0184791D01*
X0012684Y0184771D01*
X0012529Y0184755D01*
X0012373Y0184743D01*
X0012218Y0184735D01*
X0012062Y0184731D01*
X0011906Y0184731D01*
X0011750Y0184735D01*
X0011595Y0184743D01*
X0011439Y0184755D01*
X0011284Y0184771D01*
X0011130Y0184791D01*
X0010976Y0184815D01*
X0010822Y0184843D01*
X0010670Y0184874D01*
X0010518Y0184910D01*
X0010367Y0184949D01*
X0010217Y0184992D01*
X0010069Y0185039D01*
X0009921Y0185090D01*
X0009775Y0185145D01*
X0009631Y0185203D01*
X0009488Y0185265D01*
X0009346Y0185330D01*
X0009207Y0185400D01*
X0009069Y0185472D01*
X0008933Y0185549D01*
X0008799Y0185628D01*
X0008667Y0185711D01*
X0008537Y0185798D01*
X0008410Y0185887D01*
X0008285Y0185980D01*
X0008162Y0186076D01*
X0008042Y0186175D01*
X0007924Y0186278D01*
X0007809Y0186383D01*
X0007697Y0186491D01*
X0007587Y0186602D01*
X0007481Y0186715D01*
X0007377Y0186832D01*
X0007276Y0186951D01*
X0007179Y0187072D01*
X0007084Y0187196D01*
X0006993Y0187322D01*
X0006905Y0187451D01*
X0006820Y0187582D01*
X0006739Y0187715D01*
X0006661Y0187850D01*
X0006587Y0187987D01*
X0006516Y0188125D01*
X0006448Y0188266D01*
X0006384Y0188408D01*
X0006324Y0188552D01*
X0006268Y0188697D01*
X0006215Y0188844D01*
X0006166Y0188992D01*
X0006121Y0189141D01*
X0006080Y0189291D01*
X0006043Y0189443D01*
X0006009Y0189595D01*
X0005979Y0189748D01*
X0005954Y0189902D01*
X0005932Y0190056D01*
X0005914Y0190211D01*
X0005900Y0190366D01*
X0005890Y0190521D01*
X0005884Y0190677D01*
X0005882Y0190833D01*
X0005882Y0215833D02*
X0005884Y0215989D01*
X0005890Y0216145D01*
X0005900Y0216300D01*
X0005914Y0216455D01*
X0005932Y0216610D01*
X0005954Y0216764D01*
X0005979Y0216918D01*
X0006009Y0217071D01*
X0006043Y0217223D01*
X0006080Y0217375D01*
X0006121Y0217525D01*
X0006166Y0217674D01*
X0006215Y0217822D01*
X0006268Y0217969D01*
X0006324Y0218114D01*
X0006384Y0218258D01*
X0006448Y0218400D01*
X0006516Y0218541D01*
X0006587Y0218679D01*
X0006661Y0218816D01*
X0006739Y0218951D01*
X0006820Y0219084D01*
X0006905Y0219215D01*
X0006993Y0219344D01*
X0007084Y0219470D01*
X0007179Y0219594D01*
X0007276Y0219715D01*
X0007377Y0219834D01*
X0007481Y0219951D01*
X0007587Y0220064D01*
X0007697Y0220175D01*
X0007809Y0220283D01*
X0007924Y0220388D01*
X0008042Y0220491D01*
X0008162Y0220590D01*
X0008285Y0220686D01*
X0008410Y0220779D01*
X0008537Y0220868D01*
X0008667Y0220955D01*
X0008799Y0221038D01*
X0008933Y0221117D01*
X0009069Y0221194D01*
X0009207Y0221266D01*
X0009346Y0221336D01*
X0009488Y0221401D01*
X0009631Y0221463D01*
X0009775Y0221521D01*
X0009921Y0221576D01*
X0010069Y0221627D01*
X0010217Y0221674D01*
X0010367Y0221717D01*
X0010518Y0221756D01*
X0010670Y0221792D01*
X0010822Y0221823D01*
X0010976Y0221851D01*
X0011130Y0221875D01*
X0011284Y0221895D01*
X0011439Y0221911D01*
X0011595Y0221923D01*
X0011750Y0221931D01*
X0011906Y0221935D01*
X0012062Y0221935D01*
X0012218Y0221931D01*
X0012373Y0221923D01*
X0012529Y0221911D01*
X0012684Y0221895D01*
X0012838Y0221875D01*
X0012992Y0221851D01*
X0013146Y0221823D01*
X0013298Y0221792D01*
X0013450Y0221756D01*
X0013601Y0221717D01*
X0013751Y0221674D01*
X0013899Y0221627D01*
X0014047Y0221576D01*
X0014193Y0221521D01*
X0014337Y0221463D01*
X0014480Y0221401D01*
X0014622Y0221336D01*
X0014761Y0221266D01*
X0014899Y0221194D01*
X0015035Y0221117D01*
X0015169Y0221038D01*
X0015301Y0220955D01*
X0015431Y0220868D01*
X0015558Y0220779D01*
X0015683Y0220686D01*
X0015806Y0220590D01*
X0015926Y0220491D01*
X0016044Y0220388D01*
X0016159Y0220283D01*
X0016271Y0220175D01*
X0016381Y0220064D01*
X0016487Y0219951D01*
X0016591Y0219834D01*
X0016692Y0219715D01*
X0016789Y0219594D01*
X0016884Y0219470D01*
X0016975Y0219344D01*
X0017063Y0219215D01*
X0017148Y0219084D01*
X0017229Y0218951D01*
X0017307Y0218816D01*
X0017381Y0218679D01*
X0017452Y0218541D01*
X0017520Y0218400D01*
X0017584Y0218258D01*
X0017644Y0218114D01*
X0017700Y0217969D01*
X0017753Y0217822D01*
X0017802Y0217674D01*
X0017847Y0217525D01*
X0017888Y0217375D01*
X0017925Y0217223D01*
X0017959Y0217071D01*
X0017989Y0216918D01*
X0018014Y0216764D01*
X0018036Y0216610D01*
X0018054Y0216455D01*
X0018068Y0216300D01*
X0018078Y0216145D01*
X0018084Y0215989D01*
X0018086Y0215833D01*
X0018084Y0215677D01*
X0018078Y0215521D01*
X0018068Y0215366D01*
X0018054Y0215211D01*
X0018036Y0215056D01*
X0018014Y0214902D01*
X0017989Y0214748D01*
X0017959Y0214595D01*
X0017925Y0214443D01*
X0017888Y0214291D01*
X0017847Y0214141D01*
X0017802Y0213992D01*
X0017753Y0213844D01*
X0017700Y0213697D01*
X0017644Y0213552D01*
X0017584Y0213408D01*
X0017520Y0213266D01*
X0017452Y0213125D01*
X0017381Y0212987D01*
X0017307Y0212850D01*
X0017229Y0212715D01*
X0017148Y0212582D01*
X0017063Y0212451D01*
X0016975Y0212322D01*
X0016884Y0212196D01*
X0016789Y0212072D01*
X0016692Y0211951D01*
X0016591Y0211832D01*
X0016487Y0211715D01*
X0016381Y0211602D01*
X0016271Y0211491D01*
X0016159Y0211383D01*
X0016044Y0211278D01*
X0015926Y0211175D01*
X0015806Y0211076D01*
X0015683Y0210980D01*
X0015558Y0210887D01*
X0015431Y0210798D01*
X0015301Y0210711D01*
X0015169Y0210628D01*
X0015035Y0210549D01*
X0014899Y0210472D01*
X0014761Y0210400D01*
X0014622Y0210330D01*
X0014480Y0210265D01*
X0014337Y0210203D01*
X0014193Y0210145D01*
X0014047Y0210090D01*
X0013899Y0210039D01*
X0013751Y0209992D01*
X0013601Y0209949D01*
X0013450Y0209910D01*
X0013298Y0209874D01*
X0013146Y0209843D01*
X0012992Y0209815D01*
X0012838Y0209791D01*
X0012684Y0209771D01*
X0012529Y0209755D01*
X0012373Y0209743D01*
X0012218Y0209735D01*
X0012062Y0209731D01*
X0011906Y0209731D01*
X0011750Y0209735D01*
X0011595Y0209743D01*
X0011439Y0209755D01*
X0011284Y0209771D01*
X0011130Y0209791D01*
X0010976Y0209815D01*
X0010822Y0209843D01*
X0010670Y0209874D01*
X0010518Y0209910D01*
X0010367Y0209949D01*
X0010217Y0209992D01*
X0010069Y0210039D01*
X0009921Y0210090D01*
X0009775Y0210145D01*
X0009631Y0210203D01*
X0009488Y0210265D01*
X0009346Y0210330D01*
X0009207Y0210400D01*
X0009069Y0210472D01*
X0008933Y0210549D01*
X0008799Y0210628D01*
X0008667Y0210711D01*
X0008537Y0210798D01*
X0008410Y0210887D01*
X0008285Y0210980D01*
X0008162Y0211076D01*
X0008042Y0211175D01*
X0007924Y0211278D01*
X0007809Y0211383D01*
X0007697Y0211491D01*
X0007587Y0211602D01*
X0007481Y0211715D01*
X0007377Y0211832D01*
X0007276Y0211951D01*
X0007179Y0212072D01*
X0007084Y0212196D01*
X0006993Y0212322D01*
X0006905Y0212451D01*
X0006820Y0212582D01*
X0006739Y0212715D01*
X0006661Y0212850D01*
X0006587Y0212987D01*
X0006516Y0213125D01*
X0006448Y0213266D01*
X0006384Y0213408D01*
X0006324Y0213552D01*
X0006268Y0213697D01*
X0006215Y0213844D01*
X0006166Y0213992D01*
X0006121Y0214141D01*
X0006080Y0214291D01*
X0006043Y0214443D01*
X0006009Y0214595D01*
X0005979Y0214748D01*
X0005954Y0214902D01*
X0005932Y0215056D01*
X0005914Y0215211D01*
X0005900Y0215366D01*
X0005890Y0215521D01*
X0005884Y0215677D01*
X0005882Y0215833D01*
X0005882Y0385833D02*
X0005884Y0385989D01*
X0005890Y0386145D01*
X0005900Y0386300D01*
X0005914Y0386455D01*
X0005932Y0386610D01*
X0005954Y0386764D01*
X0005979Y0386918D01*
X0006009Y0387071D01*
X0006043Y0387223D01*
X0006080Y0387375D01*
X0006121Y0387525D01*
X0006166Y0387674D01*
X0006215Y0387822D01*
X0006268Y0387969D01*
X0006324Y0388114D01*
X0006384Y0388258D01*
X0006448Y0388400D01*
X0006516Y0388541D01*
X0006587Y0388679D01*
X0006661Y0388816D01*
X0006739Y0388951D01*
X0006820Y0389084D01*
X0006905Y0389215D01*
X0006993Y0389344D01*
X0007084Y0389470D01*
X0007179Y0389594D01*
X0007276Y0389715D01*
X0007377Y0389834D01*
X0007481Y0389951D01*
X0007587Y0390064D01*
X0007697Y0390175D01*
X0007809Y0390283D01*
X0007924Y0390388D01*
X0008042Y0390491D01*
X0008162Y0390590D01*
X0008285Y0390686D01*
X0008410Y0390779D01*
X0008537Y0390868D01*
X0008667Y0390955D01*
X0008799Y0391038D01*
X0008933Y0391117D01*
X0009069Y0391194D01*
X0009207Y0391266D01*
X0009346Y0391336D01*
X0009488Y0391401D01*
X0009631Y0391463D01*
X0009775Y0391521D01*
X0009921Y0391576D01*
X0010069Y0391627D01*
X0010217Y0391674D01*
X0010367Y0391717D01*
X0010518Y0391756D01*
X0010670Y0391792D01*
X0010822Y0391823D01*
X0010976Y0391851D01*
X0011130Y0391875D01*
X0011284Y0391895D01*
X0011439Y0391911D01*
X0011595Y0391923D01*
X0011750Y0391931D01*
X0011906Y0391935D01*
X0012062Y0391935D01*
X0012218Y0391931D01*
X0012373Y0391923D01*
X0012529Y0391911D01*
X0012684Y0391895D01*
X0012838Y0391875D01*
X0012992Y0391851D01*
X0013146Y0391823D01*
X0013298Y0391792D01*
X0013450Y0391756D01*
X0013601Y0391717D01*
X0013751Y0391674D01*
X0013899Y0391627D01*
X0014047Y0391576D01*
X0014193Y0391521D01*
X0014337Y0391463D01*
X0014480Y0391401D01*
X0014622Y0391336D01*
X0014761Y0391266D01*
X0014899Y0391194D01*
X0015035Y0391117D01*
X0015169Y0391038D01*
X0015301Y0390955D01*
X0015431Y0390868D01*
X0015558Y0390779D01*
X0015683Y0390686D01*
X0015806Y0390590D01*
X0015926Y0390491D01*
X0016044Y0390388D01*
X0016159Y0390283D01*
X0016271Y0390175D01*
X0016381Y0390064D01*
X0016487Y0389951D01*
X0016591Y0389834D01*
X0016692Y0389715D01*
X0016789Y0389594D01*
X0016884Y0389470D01*
X0016975Y0389344D01*
X0017063Y0389215D01*
X0017148Y0389084D01*
X0017229Y0388951D01*
X0017307Y0388816D01*
X0017381Y0388679D01*
X0017452Y0388541D01*
X0017520Y0388400D01*
X0017584Y0388258D01*
X0017644Y0388114D01*
X0017700Y0387969D01*
X0017753Y0387822D01*
X0017802Y0387674D01*
X0017847Y0387525D01*
X0017888Y0387375D01*
X0017925Y0387223D01*
X0017959Y0387071D01*
X0017989Y0386918D01*
X0018014Y0386764D01*
X0018036Y0386610D01*
X0018054Y0386455D01*
X0018068Y0386300D01*
X0018078Y0386145D01*
X0018084Y0385989D01*
X0018086Y0385833D01*
X0018084Y0385677D01*
X0018078Y0385521D01*
X0018068Y0385366D01*
X0018054Y0385211D01*
X0018036Y0385056D01*
X0018014Y0384902D01*
X0017989Y0384748D01*
X0017959Y0384595D01*
X0017925Y0384443D01*
X0017888Y0384291D01*
X0017847Y0384141D01*
X0017802Y0383992D01*
X0017753Y0383844D01*
X0017700Y0383697D01*
X0017644Y0383552D01*
X0017584Y0383408D01*
X0017520Y0383266D01*
X0017452Y0383125D01*
X0017381Y0382987D01*
X0017307Y0382850D01*
X0017229Y0382715D01*
X0017148Y0382582D01*
X0017063Y0382451D01*
X0016975Y0382322D01*
X0016884Y0382196D01*
X0016789Y0382072D01*
X0016692Y0381951D01*
X0016591Y0381832D01*
X0016487Y0381715D01*
X0016381Y0381602D01*
X0016271Y0381491D01*
X0016159Y0381383D01*
X0016044Y0381278D01*
X0015926Y0381175D01*
X0015806Y0381076D01*
X0015683Y0380980D01*
X0015558Y0380887D01*
X0015431Y0380798D01*
X0015301Y0380711D01*
X0015169Y0380628D01*
X0015035Y0380549D01*
X0014899Y0380472D01*
X0014761Y0380400D01*
X0014622Y0380330D01*
X0014480Y0380265D01*
X0014337Y0380203D01*
X0014193Y0380145D01*
X0014047Y0380090D01*
X0013899Y0380039D01*
X0013751Y0379992D01*
X0013601Y0379949D01*
X0013450Y0379910D01*
X0013298Y0379874D01*
X0013146Y0379843D01*
X0012992Y0379815D01*
X0012838Y0379791D01*
X0012684Y0379771D01*
X0012529Y0379755D01*
X0012373Y0379743D01*
X0012218Y0379735D01*
X0012062Y0379731D01*
X0011906Y0379731D01*
X0011750Y0379735D01*
X0011595Y0379743D01*
X0011439Y0379755D01*
X0011284Y0379771D01*
X0011130Y0379791D01*
X0010976Y0379815D01*
X0010822Y0379843D01*
X0010670Y0379874D01*
X0010518Y0379910D01*
X0010367Y0379949D01*
X0010217Y0379992D01*
X0010069Y0380039D01*
X0009921Y0380090D01*
X0009775Y0380145D01*
X0009631Y0380203D01*
X0009488Y0380265D01*
X0009346Y0380330D01*
X0009207Y0380400D01*
X0009069Y0380472D01*
X0008933Y0380549D01*
X0008799Y0380628D01*
X0008667Y0380711D01*
X0008537Y0380798D01*
X0008410Y0380887D01*
X0008285Y0380980D01*
X0008162Y0381076D01*
X0008042Y0381175D01*
X0007924Y0381278D01*
X0007809Y0381383D01*
X0007697Y0381491D01*
X0007587Y0381602D01*
X0007481Y0381715D01*
X0007377Y0381832D01*
X0007276Y0381951D01*
X0007179Y0382072D01*
X0007084Y0382196D01*
X0006993Y0382322D01*
X0006905Y0382451D01*
X0006820Y0382582D01*
X0006739Y0382715D01*
X0006661Y0382850D01*
X0006587Y0382987D01*
X0006516Y0383125D01*
X0006448Y0383266D01*
X0006384Y0383408D01*
X0006324Y0383552D01*
X0006268Y0383697D01*
X0006215Y0383844D01*
X0006166Y0383992D01*
X0006121Y0384141D01*
X0006080Y0384291D01*
X0006043Y0384443D01*
X0006009Y0384595D01*
X0005979Y0384748D01*
X0005954Y0384902D01*
X0005932Y0385056D01*
X0005914Y0385211D01*
X0005900Y0385366D01*
X0005890Y0385521D01*
X0005884Y0385677D01*
X0005882Y0385833D01*
X0225882Y0385833D02*
X0225884Y0385989D01*
X0225890Y0386145D01*
X0225900Y0386300D01*
X0225914Y0386455D01*
X0225932Y0386610D01*
X0225954Y0386764D01*
X0225979Y0386918D01*
X0226009Y0387071D01*
X0226043Y0387223D01*
X0226080Y0387375D01*
X0226121Y0387525D01*
X0226166Y0387674D01*
X0226215Y0387822D01*
X0226268Y0387969D01*
X0226324Y0388114D01*
X0226384Y0388258D01*
X0226448Y0388400D01*
X0226516Y0388541D01*
X0226587Y0388679D01*
X0226661Y0388816D01*
X0226739Y0388951D01*
X0226820Y0389084D01*
X0226905Y0389215D01*
X0226993Y0389344D01*
X0227084Y0389470D01*
X0227179Y0389594D01*
X0227276Y0389715D01*
X0227377Y0389834D01*
X0227481Y0389951D01*
X0227587Y0390064D01*
X0227697Y0390175D01*
X0227809Y0390283D01*
X0227924Y0390388D01*
X0228042Y0390491D01*
X0228162Y0390590D01*
X0228285Y0390686D01*
X0228410Y0390779D01*
X0228537Y0390868D01*
X0228667Y0390955D01*
X0228799Y0391038D01*
X0228933Y0391117D01*
X0229069Y0391194D01*
X0229207Y0391266D01*
X0229346Y0391336D01*
X0229488Y0391401D01*
X0229631Y0391463D01*
X0229775Y0391521D01*
X0229921Y0391576D01*
X0230069Y0391627D01*
X0230217Y0391674D01*
X0230367Y0391717D01*
X0230518Y0391756D01*
X0230670Y0391792D01*
X0230822Y0391823D01*
X0230976Y0391851D01*
X0231130Y0391875D01*
X0231284Y0391895D01*
X0231439Y0391911D01*
X0231595Y0391923D01*
X0231750Y0391931D01*
X0231906Y0391935D01*
X0232062Y0391935D01*
X0232218Y0391931D01*
X0232373Y0391923D01*
X0232529Y0391911D01*
X0232684Y0391895D01*
X0232838Y0391875D01*
X0232992Y0391851D01*
X0233146Y0391823D01*
X0233298Y0391792D01*
X0233450Y0391756D01*
X0233601Y0391717D01*
X0233751Y0391674D01*
X0233899Y0391627D01*
X0234047Y0391576D01*
X0234193Y0391521D01*
X0234337Y0391463D01*
X0234480Y0391401D01*
X0234622Y0391336D01*
X0234761Y0391266D01*
X0234899Y0391194D01*
X0235035Y0391117D01*
X0235169Y0391038D01*
X0235301Y0390955D01*
X0235431Y0390868D01*
X0235558Y0390779D01*
X0235683Y0390686D01*
X0235806Y0390590D01*
X0235926Y0390491D01*
X0236044Y0390388D01*
X0236159Y0390283D01*
X0236271Y0390175D01*
X0236381Y0390064D01*
X0236487Y0389951D01*
X0236591Y0389834D01*
X0236692Y0389715D01*
X0236789Y0389594D01*
X0236884Y0389470D01*
X0236975Y0389344D01*
X0237063Y0389215D01*
X0237148Y0389084D01*
X0237229Y0388951D01*
X0237307Y0388816D01*
X0237381Y0388679D01*
X0237452Y0388541D01*
X0237520Y0388400D01*
X0237584Y0388258D01*
X0237644Y0388114D01*
X0237700Y0387969D01*
X0237753Y0387822D01*
X0237802Y0387674D01*
X0237847Y0387525D01*
X0237888Y0387375D01*
X0237925Y0387223D01*
X0237959Y0387071D01*
X0237989Y0386918D01*
X0238014Y0386764D01*
X0238036Y0386610D01*
X0238054Y0386455D01*
X0238068Y0386300D01*
X0238078Y0386145D01*
X0238084Y0385989D01*
X0238086Y0385833D01*
X0238084Y0385677D01*
X0238078Y0385521D01*
X0238068Y0385366D01*
X0238054Y0385211D01*
X0238036Y0385056D01*
X0238014Y0384902D01*
X0237989Y0384748D01*
X0237959Y0384595D01*
X0237925Y0384443D01*
X0237888Y0384291D01*
X0237847Y0384141D01*
X0237802Y0383992D01*
X0237753Y0383844D01*
X0237700Y0383697D01*
X0237644Y0383552D01*
X0237584Y0383408D01*
X0237520Y0383266D01*
X0237452Y0383125D01*
X0237381Y0382987D01*
X0237307Y0382850D01*
X0237229Y0382715D01*
X0237148Y0382582D01*
X0237063Y0382451D01*
X0236975Y0382322D01*
X0236884Y0382196D01*
X0236789Y0382072D01*
X0236692Y0381951D01*
X0236591Y0381832D01*
X0236487Y0381715D01*
X0236381Y0381602D01*
X0236271Y0381491D01*
X0236159Y0381383D01*
X0236044Y0381278D01*
X0235926Y0381175D01*
X0235806Y0381076D01*
X0235683Y0380980D01*
X0235558Y0380887D01*
X0235431Y0380798D01*
X0235301Y0380711D01*
X0235169Y0380628D01*
X0235035Y0380549D01*
X0234899Y0380472D01*
X0234761Y0380400D01*
X0234622Y0380330D01*
X0234480Y0380265D01*
X0234337Y0380203D01*
X0234193Y0380145D01*
X0234047Y0380090D01*
X0233899Y0380039D01*
X0233751Y0379992D01*
X0233601Y0379949D01*
X0233450Y0379910D01*
X0233298Y0379874D01*
X0233146Y0379843D01*
X0232992Y0379815D01*
X0232838Y0379791D01*
X0232684Y0379771D01*
X0232529Y0379755D01*
X0232373Y0379743D01*
X0232218Y0379735D01*
X0232062Y0379731D01*
X0231906Y0379731D01*
X0231750Y0379735D01*
X0231595Y0379743D01*
X0231439Y0379755D01*
X0231284Y0379771D01*
X0231130Y0379791D01*
X0230976Y0379815D01*
X0230822Y0379843D01*
X0230670Y0379874D01*
X0230518Y0379910D01*
X0230367Y0379949D01*
X0230217Y0379992D01*
X0230069Y0380039D01*
X0229921Y0380090D01*
X0229775Y0380145D01*
X0229631Y0380203D01*
X0229488Y0380265D01*
X0229346Y0380330D01*
X0229207Y0380400D01*
X0229069Y0380472D01*
X0228933Y0380549D01*
X0228799Y0380628D01*
X0228667Y0380711D01*
X0228537Y0380798D01*
X0228410Y0380887D01*
X0228285Y0380980D01*
X0228162Y0381076D01*
X0228042Y0381175D01*
X0227924Y0381278D01*
X0227809Y0381383D01*
X0227697Y0381491D01*
X0227587Y0381602D01*
X0227481Y0381715D01*
X0227377Y0381832D01*
X0227276Y0381951D01*
X0227179Y0382072D01*
X0227084Y0382196D01*
X0226993Y0382322D01*
X0226905Y0382451D01*
X0226820Y0382582D01*
X0226739Y0382715D01*
X0226661Y0382850D01*
X0226587Y0382987D01*
X0226516Y0383125D01*
X0226448Y0383266D01*
X0226384Y0383408D01*
X0226324Y0383552D01*
X0226268Y0383697D01*
X0226215Y0383844D01*
X0226166Y0383992D01*
X0226121Y0384141D01*
X0226080Y0384291D01*
X0226043Y0384443D01*
X0226009Y0384595D01*
X0225979Y0384748D01*
X0225954Y0384902D01*
X0225932Y0385056D01*
X0225914Y0385211D01*
X0225900Y0385366D01*
X0225890Y0385521D01*
X0225884Y0385677D01*
X0225882Y0385833D01*
X0225882Y0215833D02*
X0225884Y0215989D01*
X0225890Y0216145D01*
X0225900Y0216300D01*
X0225914Y0216455D01*
X0225932Y0216610D01*
X0225954Y0216764D01*
X0225979Y0216918D01*
X0226009Y0217071D01*
X0226043Y0217223D01*
X0226080Y0217375D01*
X0226121Y0217525D01*
X0226166Y0217674D01*
X0226215Y0217822D01*
X0226268Y0217969D01*
X0226324Y0218114D01*
X0226384Y0218258D01*
X0226448Y0218400D01*
X0226516Y0218541D01*
X0226587Y0218679D01*
X0226661Y0218816D01*
X0226739Y0218951D01*
X0226820Y0219084D01*
X0226905Y0219215D01*
X0226993Y0219344D01*
X0227084Y0219470D01*
X0227179Y0219594D01*
X0227276Y0219715D01*
X0227377Y0219834D01*
X0227481Y0219951D01*
X0227587Y0220064D01*
X0227697Y0220175D01*
X0227809Y0220283D01*
X0227924Y0220388D01*
X0228042Y0220491D01*
X0228162Y0220590D01*
X0228285Y0220686D01*
X0228410Y0220779D01*
X0228537Y0220868D01*
X0228667Y0220955D01*
X0228799Y0221038D01*
X0228933Y0221117D01*
X0229069Y0221194D01*
X0229207Y0221266D01*
X0229346Y0221336D01*
X0229488Y0221401D01*
X0229631Y0221463D01*
X0229775Y0221521D01*
X0229921Y0221576D01*
X0230069Y0221627D01*
X0230217Y0221674D01*
X0230367Y0221717D01*
X0230518Y0221756D01*
X0230670Y0221792D01*
X0230822Y0221823D01*
X0230976Y0221851D01*
X0231130Y0221875D01*
X0231284Y0221895D01*
X0231439Y0221911D01*
X0231595Y0221923D01*
X0231750Y0221931D01*
X0231906Y0221935D01*
X0232062Y0221935D01*
X0232218Y0221931D01*
X0232373Y0221923D01*
X0232529Y0221911D01*
X0232684Y0221895D01*
X0232838Y0221875D01*
X0232992Y0221851D01*
X0233146Y0221823D01*
X0233298Y0221792D01*
X0233450Y0221756D01*
X0233601Y0221717D01*
X0233751Y0221674D01*
X0233899Y0221627D01*
X0234047Y0221576D01*
X0234193Y0221521D01*
X0234337Y0221463D01*
X0234480Y0221401D01*
X0234622Y0221336D01*
X0234761Y0221266D01*
X0234899Y0221194D01*
X0235035Y0221117D01*
X0235169Y0221038D01*
X0235301Y0220955D01*
X0235431Y0220868D01*
X0235558Y0220779D01*
X0235683Y0220686D01*
X0235806Y0220590D01*
X0235926Y0220491D01*
X0236044Y0220388D01*
X0236159Y0220283D01*
X0236271Y0220175D01*
X0236381Y0220064D01*
X0236487Y0219951D01*
X0236591Y0219834D01*
X0236692Y0219715D01*
X0236789Y0219594D01*
X0236884Y0219470D01*
X0236975Y0219344D01*
X0237063Y0219215D01*
X0237148Y0219084D01*
X0237229Y0218951D01*
X0237307Y0218816D01*
X0237381Y0218679D01*
X0237452Y0218541D01*
X0237520Y0218400D01*
X0237584Y0218258D01*
X0237644Y0218114D01*
X0237700Y0217969D01*
X0237753Y0217822D01*
X0237802Y0217674D01*
X0237847Y0217525D01*
X0237888Y0217375D01*
X0237925Y0217223D01*
X0237959Y0217071D01*
X0237989Y0216918D01*
X0238014Y0216764D01*
X0238036Y0216610D01*
X0238054Y0216455D01*
X0238068Y0216300D01*
X0238078Y0216145D01*
X0238084Y0215989D01*
X0238086Y0215833D01*
X0238084Y0215677D01*
X0238078Y0215521D01*
X0238068Y0215366D01*
X0238054Y0215211D01*
X0238036Y0215056D01*
X0238014Y0214902D01*
X0237989Y0214748D01*
X0237959Y0214595D01*
X0237925Y0214443D01*
X0237888Y0214291D01*
X0237847Y0214141D01*
X0237802Y0213992D01*
X0237753Y0213844D01*
X0237700Y0213697D01*
X0237644Y0213552D01*
X0237584Y0213408D01*
X0237520Y0213266D01*
X0237452Y0213125D01*
X0237381Y0212987D01*
X0237307Y0212850D01*
X0237229Y0212715D01*
X0237148Y0212582D01*
X0237063Y0212451D01*
X0236975Y0212322D01*
X0236884Y0212196D01*
X0236789Y0212072D01*
X0236692Y0211951D01*
X0236591Y0211832D01*
X0236487Y0211715D01*
X0236381Y0211602D01*
X0236271Y0211491D01*
X0236159Y0211383D01*
X0236044Y0211278D01*
X0235926Y0211175D01*
X0235806Y0211076D01*
X0235683Y0210980D01*
X0235558Y0210887D01*
X0235431Y0210798D01*
X0235301Y0210711D01*
X0235169Y0210628D01*
X0235035Y0210549D01*
X0234899Y0210472D01*
X0234761Y0210400D01*
X0234622Y0210330D01*
X0234480Y0210265D01*
X0234337Y0210203D01*
X0234193Y0210145D01*
X0234047Y0210090D01*
X0233899Y0210039D01*
X0233751Y0209992D01*
X0233601Y0209949D01*
X0233450Y0209910D01*
X0233298Y0209874D01*
X0233146Y0209843D01*
X0232992Y0209815D01*
X0232838Y0209791D01*
X0232684Y0209771D01*
X0232529Y0209755D01*
X0232373Y0209743D01*
X0232218Y0209735D01*
X0232062Y0209731D01*
X0231906Y0209731D01*
X0231750Y0209735D01*
X0231595Y0209743D01*
X0231439Y0209755D01*
X0231284Y0209771D01*
X0231130Y0209791D01*
X0230976Y0209815D01*
X0230822Y0209843D01*
X0230670Y0209874D01*
X0230518Y0209910D01*
X0230367Y0209949D01*
X0230217Y0209992D01*
X0230069Y0210039D01*
X0229921Y0210090D01*
X0229775Y0210145D01*
X0229631Y0210203D01*
X0229488Y0210265D01*
X0229346Y0210330D01*
X0229207Y0210400D01*
X0229069Y0210472D01*
X0228933Y0210549D01*
X0228799Y0210628D01*
X0228667Y0210711D01*
X0228537Y0210798D01*
X0228410Y0210887D01*
X0228285Y0210980D01*
X0228162Y0211076D01*
X0228042Y0211175D01*
X0227924Y0211278D01*
X0227809Y0211383D01*
X0227697Y0211491D01*
X0227587Y0211602D01*
X0227481Y0211715D01*
X0227377Y0211832D01*
X0227276Y0211951D01*
X0227179Y0212072D01*
X0227084Y0212196D01*
X0226993Y0212322D01*
X0226905Y0212451D01*
X0226820Y0212582D01*
X0226739Y0212715D01*
X0226661Y0212850D01*
X0226587Y0212987D01*
X0226516Y0213125D01*
X0226448Y0213266D01*
X0226384Y0213408D01*
X0226324Y0213552D01*
X0226268Y0213697D01*
X0226215Y0213844D01*
X0226166Y0213992D01*
X0226121Y0214141D01*
X0226080Y0214291D01*
X0226043Y0214443D01*
X0226009Y0214595D01*
X0225979Y0214748D01*
X0225954Y0214902D01*
X0225932Y0215056D01*
X0225914Y0215211D01*
X0225900Y0215366D01*
X0225890Y0215521D01*
X0225884Y0215677D01*
X0225882Y0215833D01*
X0225882Y0190833D02*
X0225884Y0190989D01*
X0225890Y0191145D01*
X0225900Y0191300D01*
X0225914Y0191455D01*
X0225932Y0191610D01*
X0225954Y0191764D01*
X0225979Y0191918D01*
X0226009Y0192071D01*
X0226043Y0192223D01*
X0226080Y0192375D01*
X0226121Y0192525D01*
X0226166Y0192674D01*
X0226215Y0192822D01*
X0226268Y0192969D01*
X0226324Y0193114D01*
X0226384Y0193258D01*
X0226448Y0193400D01*
X0226516Y0193541D01*
X0226587Y0193679D01*
X0226661Y0193816D01*
X0226739Y0193951D01*
X0226820Y0194084D01*
X0226905Y0194215D01*
X0226993Y0194344D01*
X0227084Y0194470D01*
X0227179Y0194594D01*
X0227276Y0194715D01*
X0227377Y0194834D01*
X0227481Y0194951D01*
X0227587Y0195064D01*
X0227697Y0195175D01*
X0227809Y0195283D01*
X0227924Y0195388D01*
X0228042Y0195491D01*
X0228162Y0195590D01*
X0228285Y0195686D01*
X0228410Y0195779D01*
X0228537Y0195868D01*
X0228667Y0195955D01*
X0228799Y0196038D01*
X0228933Y0196117D01*
X0229069Y0196194D01*
X0229207Y0196266D01*
X0229346Y0196336D01*
X0229488Y0196401D01*
X0229631Y0196463D01*
X0229775Y0196521D01*
X0229921Y0196576D01*
X0230069Y0196627D01*
X0230217Y0196674D01*
X0230367Y0196717D01*
X0230518Y0196756D01*
X0230670Y0196792D01*
X0230822Y0196823D01*
X0230976Y0196851D01*
X0231130Y0196875D01*
X0231284Y0196895D01*
X0231439Y0196911D01*
X0231595Y0196923D01*
X0231750Y0196931D01*
X0231906Y0196935D01*
X0232062Y0196935D01*
X0232218Y0196931D01*
X0232373Y0196923D01*
X0232529Y0196911D01*
X0232684Y0196895D01*
X0232838Y0196875D01*
X0232992Y0196851D01*
X0233146Y0196823D01*
X0233298Y0196792D01*
X0233450Y0196756D01*
X0233601Y0196717D01*
X0233751Y0196674D01*
X0233899Y0196627D01*
X0234047Y0196576D01*
X0234193Y0196521D01*
X0234337Y0196463D01*
X0234480Y0196401D01*
X0234622Y0196336D01*
X0234761Y0196266D01*
X0234899Y0196194D01*
X0235035Y0196117D01*
X0235169Y0196038D01*
X0235301Y0195955D01*
X0235431Y0195868D01*
X0235558Y0195779D01*
X0235683Y0195686D01*
X0235806Y0195590D01*
X0235926Y0195491D01*
X0236044Y0195388D01*
X0236159Y0195283D01*
X0236271Y0195175D01*
X0236381Y0195064D01*
X0236487Y0194951D01*
X0236591Y0194834D01*
X0236692Y0194715D01*
X0236789Y0194594D01*
X0236884Y0194470D01*
X0236975Y0194344D01*
X0237063Y0194215D01*
X0237148Y0194084D01*
X0237229Y0193951D01*
X0237307Y0193816D01*
X0237381Y0193679D01*
X0237452Y0193541D01*
X0237520Y0193400D01*
X0237584Y0193258D01*
X0237644Y0193114D01*
X0237700Y0192969D01*
X0237753Y0192822D01*
X0237802Y0192674D01*
X0237847Y0192525D01*
X0237888Y0192375D01*
X0237925Y0192223D01*
X0237959Y0192071D01*
X0237989Y0191918D01*
X0238014Y0191764D01*
X0238036Y0191610D01*
X0238054Y0191455D01*
X0238068Y0191300D01*
X0238078Y0191145D01*
X0238084Y0190989D01*
X0238086Y0190833D01*
X0238084Y0190677D01*
X0238078Y0190521D01*
X0238068Y0190366D01*
X0238054Y0190211D01*
X0238036Y0190056D01*
X0238014Y0189902D01*
X0237989Y0189748D01*
X0237959Y0189595D01*
X0237925Y0189443D01*
X0237888Y0189291D01*
X0237847Y0189141D01*
X0237802Y0188992D01*
X0237753Y0188844D01*
X0237700Y0188697D01*
X0237644Y0188552D01*
X0237584Y0188408D01*
X0237520Y0188266D01*
X0237452Y0188125D01*
X0237381Y0187987D01*
X0237307Y0187850D01*
X0237229Y0187715D01*
X0237148Y0187582D01*
X0237063Y0187451D01*
X0236975Y0187322D01*
X0236884Y0187196D01*
X0236789Y0187072D01*
X0236692Y0186951D01*
X0236591Y0186832D01*
X0236487Y0186715D01*
X0236381Y0186602D01*
X0236271Y0186491D01*
X0236159Y0186383D01*
X0236044Y0186278D01*
X0235926Y0186175D01*
X0235806Y0186076D01*
X0235683Y0185980D01*
X0235558Y0185887D01*
X0235431Y0185798D01*
X0235301Y0185711D01*
X0235169Y0185628D01*
X0235035Y0185549D01*
X0234899Y0185472D01*
X0234761Y0185400D01*
X0234622Y0185330D01*
X0234480Y0185265D01*
X0234337Y0185203D01*
X0234193Y0185145D01*
X0234047Y0185090D01*
X0233899Y0185039D01*
X0233751Y0184992D01*
X0233601Y0184949D01*
X0233450Y0184910D01*
X0233298Y0184874D01*
X0233146Y0184843D01*
X0232992Y0184815D01*
X0232838Y0184791D01*
X0232684Y0184771D01*
X0232529Y0184755D01*
X0232373Y0184743D01*
X0232218Y0184735D01*
X0232062Y0184731D01*
X0231906Y0184731D01*
X0231750Y0184735D01*
X0231595Y0184743D01*
X0231439Y0184755D01*
X0231284Y0184771D01*
X0231130Y0184791D01*
X0230976Y0184815D01*
X0230822Y0184843D01*
X0230670Y0184874D01*
X0230518Y0184910D01*
X0230367Y0184949D01*
X0230217Y0184992D01*
X0230069Y0185039D01*
X0229921Y0185090D01*
X0229775Y0185145D01*
X0229631Y0185203D01*
X0229488Y0185265D01*
X0229346Y0185330D01*
X0229207Y0185400D01*
X0229069Y0185472D01*
X0228933Y0185549D01*
X0228799Y0185628D01*
X0228667Y0185711D01*
X0228537Y0185798D01*
X0228410Y0185887D01*
X0228285Y0185980D01*
X0228162Y0186076D01*
X0228042Y0186175D01*
X0227924Y0186278D01*
X0227809Y0186383D01*
X0227697Y0186491D01*
X0227587Y0186602D01*
X0227481Y0186715D01*
X0227377Y0186832D01*
X0227276Y0186951D01*
X0227179Y0187072D01*
X0227084Y0187196D01*
X0226993Y0187322D01*
X0226905Y0187451D01*
X0226820Y0187582D01*
X0226739Y0187715D01*
X0226661Y0187850D01*
X0226587Y0187987D01*
X0226516Y0188125D01*
X0226448Y0188266D01*
X0226384Y0188408D01*
X0226324Y0188552D01*
X0226268Y0188697D01*
X0226215Y0188844D01*
X0226166Y0188992D01*
X0226121Y0189141D01*
X0226080Y0189291D01*
X0226043Y0189443D01*
X0226009Y0189595D01*
X0225979Y0189748D01*
X0225954Y0189902D01*
X0225932Y0190056D01*
X0225914Y0190211D01*
X0225900Y0190366D01*
X0225890Y0190521D01*
X0225884Y0190677D01*
X0225882Y0190833D01*
X0225882Y0025833D02*
X0225884Y0025989D01*
X0225890Y0026145D01*
X0225900Y0026300D01*
X0225914Y0026455D01*
X0225932Y0026610D01*
X0225954Y0026764D01*
X0225979Y0026918D01*
X0226009Y0027071D01*
X0226043Y0027223D01*
X0226080Y0027375D01*
X0226121Y0027525D01*
X0226166Y0027674D01*
X0226215Y0027822D01*
X0226268Y0027969D01*
X0226324Y0028114D01*
X0226384Y0028258D01*
X0226448Y0028400D01*
X0226516Y0028541D01*
X0226587Y0028679D01*
X0226661Y0028816D01*
X0226739Y0028951D01*
X0226820Y0029084D01*
X0226905Y0029215D01*
X0226993Y0029344D01*
X0227084Y0029470D01*
X0227179Y0029594D01*
X0227276Y0029715D01*
X0227377Y0029834D01*
X0227481Y0029951D01*
X0227587Y0030064D01*
X0227697Y0030175D01*
X0227809Y0030283D01*
X0227924Y0030388D01*
X0228042Y0030491D01*
X0228162Y0030590D01*
X0228285Y0030686D01*
X0228410Y0030779D01*
X0228537Y0030868D01*
X0228667Y0030955D01*
X0228799Y0031038D01*
X0228933Y0031117D01*
X0229069Y0031194D01*
X0229207Y0031266D01*
X0229346Y0031336D01*
X0229488Y0031401D01*
X0229631Y0031463D01*
X0229775Y0031521D01*
X0229921Y0031576D01*
X0230069Y0031627D01*
X0230217Y0031674D01*
X0230367Y0031717D01*
X0230518Y0031756D01*
X0230670Y0031792D01*
X0230822Y0031823D01*
X0230976Y0031851D01*
X0231130Y0031875D01*
X0231284Y0031895D01*
X0231439Y0031911D01*
X0231595Y0031923D01*
X0231750Y0031931D01*
X0231906Y0031935D01*
X0232062Y0031935D01*
X0232218Y0031931D01*
X0232373Y0031923D01*
X0232529Y0031911D01*
X0232684Y0031895D01*
X0232838Y0031875D01*
X0232992Y0031851D01*
X0233146Y0031823D01*
X0233298Y0031792D01*
X0233450Y0031756D01*
X0233601Y0031717D01*
X0233751Y0031674D01*
X0233899Y0031627D01*
X0234047Y0031576D01*
X0234193Y0031521D01*
X0234337Y0031463D01*
X0234480Y0031401D01*
X0234622Y0031336D01*
X0234761Y0031266D01*
X0234899Y0031194D01*
X0235035Y0031117D01*
X0235169Y0031038D01*
X0235301Y0030955D01*
X0235431Y0030868D01*
X0235558Y0030779D01*
X0235683Y0030686D01*
X0235806Y0030590D01*
X0235926Y0030491D01*
X0236044Y0030388D01*
X0236159Y0030283D01*
X0236271Y0030175D01*
X0236381Y0030064D01*
X0236487Y0029951D01*
X0236591Y0029834D01*
X0236692Y0029715D01*
X0236789Y0029594D01*
X0236884Y0029470D01*
X0236975Y0029344D01*
X0237063Y0029215D01*
X0237148Y0029084D01*
X0237229Y0028951D01*
X0237307Y0028816D01*
X0237381Y0028679D01*
X0237452Y0028541D01*
X0237520Y0028400D01*
X0237584Y0028258D01*
X0237644Y0028114D01*
X0237700Y0027969D01*
X0237753Y0027822D01*
X0237802Y0027674D01*
X0237847Y0027525D01*
X0237888Y0027375D01*
X0237925Y0027223D01*
X0237959Y0027071D01*
X0237989Y0026918D01*
X0238014Y0026764D01*
X0238036Y0026610D01*
X0238054Y0026455D01*
X0238068Y0026300D01*
X0238078Y0026145D01*
X0238084Y0025989D01*
X0238086Y0025833D01*
X0238084Y0025677D01*
X0238078Y0025521D01*
X0238068Y0025366D01*
X0238054Y0025211D01*
X0238036Y0025056D01*
X0238014Y0024902D01*
X0237989Y0024748D01*
X0237959Y0024595D01*
X0237925Y0024443D01*
X0237888Y0024291D01*
X0237847Y0024141D01*
X0237802Y0023992D01*
X0237753Y0023844D01*
X0237700Y0023697D01*
X0237644Y0023552D01*
X0237584Y0023408D01*
X0237520Y0023266D01*
X0237452Y0023125D01*
X0237381Y0022987D01*
X0237307Y0022850D01*
X0237229Y0022715D01*
X0237148Y0022582D01*
X0237063Y0022451D01*
X0236975Y0022322D01*
X0236884Y0022196D01*
X0236789Y0022072D01*
X0236692Y0021951D01*
X0236591Y0021832D01*
X0236487Y0021715D01*
X0236381Y0021602D01*
X0236271Y0021491D01*
X0236159Y0021383D01*
X0236044Y0021278D01*
X0235926Y0021175D01*
X0235806Y0021076D01*
X0235683Y0020980D01*
X0235558Y0020887D01*
X0235431Y0020798D01*
X0235301Y0020711D01*
X0235169Y0020628D01*
X0235035Y0020549D01*
X0234899Y0020472D01*
X0234761Y0020400D01*
X0234622Y0020330D01*
X0234480Y0020265D01*
X0234337Y0020203D01*
X0234193Y0020145D01*
X0234047Y0020090D01*
X0233899Y0020039D01*
X0233751Y0019992D01*
X0233601Y0019949D01*
X0233450Y0019910D01*
X0233298Y0019874D01*
X0233146Y0019843D01*
X0232992Y0019815D01*
X0232838Y0019791D01*
X0232684Y0019771D01*
X0232529Y0019755D01*
X0232373Y0019743D01*
X0232218Y0019735D01*
X0232062Y0019731D01*
X0231906Y0019731D01*
X0231750Y0019735D01*
X0231595Y0019743D01*
X0231439Y0019755D01*
X0231284Y0019771D01*
X0231130Y0019791D01*
X0230976Y0019815D01*
X0230822Y0019843D01*
X0230670Y0019874D01*
X0230518Y0019910D01*
X0230367Y0019949D01*
X0230217Y0019992D01*
X0230069Y0020039D01*
X0229921Y0020090D01*
X0229775Y0020145D01*
X0229631Y0020203D01*
X0229488Y0020265D01*
X0229346Y0020330D01*
X0229207Y0020400D01*
X0229069Y0020472D01*
X0228933Y0020549D01*
X0228799Y0020628D01*
X0228667Y0020711D01*
X0228537Y0020798D01*
X0228410Y0020887D01*
X0228285Y0020980D01*
X0228162Y0021076D01*
X0228042Y0021175D01*
X0227924Y0021278D01*
X0227809Y0021383D01*
X0227697Y0021491D01*
X0227587Y0021602D01*
X0227481Y0021715D01*
X0227377Y0021832D01*
X0227276Y0021951D01*
X0227179Y0022072D01*
X0227084Y0022196D01*
X0226993Y0022322D01*
X0226905Y0022451D01*
X0226820Y0022582D01*
X0226739Y0022715D01*
X0226661Y0022850D01*
X0226587Y0022987D01*
X0226516Y0023125D01*
X0226448Y0023266D01*
X0226384Y0023408D01*
X0226324Y0023552D01*
X0226268Y0023697D01*
X0226215Y0023844D01*
X0226166Y0023992D01*
X0226121Y0024141D01*
X0226080Y0024291D01*
X0226043Y0024443D01*
X0226009Y0024595D01*
X0225979Y0024748D01*
X0225954Y0024902D01*
X0225932Y0025056D01*
X0225914Y0025211D01*
X0225900Y0025366D01*
X0225890Y0025521D01*
X0225884Y0025677D01*
X0225882Y0025833D01*
D11*
X0190734Y0203333D03*
X0053234Y0203333D03*
D12*
X0121984Y0203333D03*
M02*
