%
M48
M72
T01C0.01378
T02C0.03150
T03C0.03200
T04C0.04000
T05C0.12205
%
T01
X128888Y32309
X147144Y60806
X177423Y62142
X177423Y50565
X179204Y113794
X176532Y137839
X197015Y271422
X175196Y306598
T02
X171984Y275833
X181984Y275833
X191984Y275833
X201984Y275833
X161984Y275833
X151984Y275833
X141984Y275833
X131984Y275833
X121984Y275833
X111984Y275833
X101984Y275833
X91984Y275833
X81984Y275833
X71984Y275833
X61984Y275833
X34484Y268333
X34484Y258333
X61984Y215833
X71984Y215833
X81984Y215833
X91984Y215833
X101984Y215833
X111984Y215833
X121984Y215833
X131984Y215833
X141984Y215833
X151984Y215833
X161984Y215833
X171984Y215833
X181984Y215833
X191984Y215833
X201984Y215833
X201984Y85833
X191984Y85833
X181984Y85833
X171984Y85833
X161984Y85833
X151984Y85833
X141984Y85833
X131984Y85833
X121984Y85833
X111984Y85833
X101984Y85833
X91984Y85833
X81984Y85833
X71984Y85833
X61984Y85833
X34484Y73333
X34484Y63333
X61984Y25833
X71984Y25833
X81984Y25833
X91984Y25833
X101984Y25833
X111984Y25833
X121984Y25833
X131984Y25833
X141984Y25833
X151984Y25833
X161984Y25833
X171984Y25833
X181984Y25833
X191984Y25833
X201984Y25833
T03
X156984Y50833
X156984Y60833
X126984Y60833
X126984Y50833
X86984Y73333
X76984Y73333
X126984Y240833
X126984Y250833
X156984Y250833
X156984Y240833
X86984Y260833
X76984Y260833
T04
X61984Y296070
X61984Y305912
X61984Y315755
X61984Y325597
X61984Y351070
X61984Y360912
X61984Y370755
X61984Y380597
X96984Y375282
X96984Y365440
X96984Y355597
X96984Y345755
X96984Y335912
X96984Y326070
X96984Y316227
X96984Y306385
X131984Y306385
X131984Y316227
X131984Y326070
X131984Y335912
X131984Y345755
X131984Y355597
X131984Y365440
X131984Y375282
X166984Y375282
X166984Y365440
X166984Y355597
X166984Y345755
X166984Y335912
X166984Y326070
X166984Y316227
X166984Y306385
X201984Y306385
X201984Y316227
X201984Y326070
X201984Y335912
X201984Y345755
X201984Y355597
X201984Y365440
X201984Y375282
X201984Y182782
X201984Y172940
X201984Y163097
X201984Y153255
X201984Y143412
X201984Y133570
X201984Y123727
X201984Y113885
X166984Y113885
X166984Y123727
X166984Y133570
X166984Y143412
X166984Y153255
X166984Y163097
X166984Y172940
X166984Y182782
X131984Y182782
X131984Y172940
X131984Y163097
X131984Y153255
X131984Y143412
X131984Y133570
X131984Y123727
X131984Y113885
X96984Y113885
X96984Y123727
X96984Y133570
X96984Y143412
X96984Y153255
X96984Y163097
X96984Y172940
X96984Y182782
X61984Y178255
X61984Y168412
X61984Y158570
X61984Y135597
X61984Y125755
X61984Y115912
X61984Y106070
X31984Y45755
X31984Y35912
X61984Y188097
X31984Y230912
X31984Y240755
T05
X11984Y25833
X11984Y190833
X11984Y215833
X11984Y385833
X231984Y385833
X231984Y215833
X231984Y190833
X231984Y25833
M30
